<?xml version="1.0" encoding="UTF-8"?>
<!DOCTYPE svg PUBLIC "-//W3C//DTD SVG 1.1//EN" "http://www.w3.org/Graphics/SVG/1.1/DTD/svg11.dtd">
<!-- Creator: CorelDRAW 2021 (64 Bit) -->
<svg xmlns="http://www.w3.org/2000/svg" xml:space="preserve" width="79.375mm" height="66.1458mm" version="1.1" style="shape-rendering:geometricPrecision; text-rendering:geometricPrecision; image-rendering:optimizeQuality; fill-rule:evenodd; clip-rule:evenodd"
viewBox="0 0 7937.5 6614.58"
 xmlns:xlink="http://www.w3.org/1999/xlink"
 xmlns:xodm="http://www.corel.com/coreldraw/odm/2003">
 <defs>
  <style type="text/css">
   <![CDATA[
    .str0 {stroke:#FEFEFE;stroke-width:282.22;stroke-miterlimit:22.9256}
    .fil0 {fill:none}
   ]]>
  </style>
 </defs>
 <g id="Camada_x0020_1">
  <metadata id="CorelCorpID_0Corel-Layer"/>
  <g id="_1420476069040">
   <path class="fil0 str0" d="M4495.41 3468.47c-78.64,65.24 -179.45,101.18 -283.71,101.18 -238.69,0 -432.16,-184.36 -432.16,-411.81 0,-227.45 193.47,-411.83 432.16,-411.83 113.58,0 222.61,42.64 303.48,118.66"/>
   <path class="fil0 str0" d="M5032.7 3922.08c-215.99,210.64 -511.94,329.42 -821,329.42 -633.85,0 -1147.67,-489.63 -1147.67,-1093.66 0,-604.05 513.82,-1093.68 1147.67,-1093.68 326.61,0 637.76,132.6 855.46,364.62"/>
   <path class="fil0 str0" d="M5606.08 4371.42c-357.78,373.32 -863.86,585.96 -1394.38,585.96 -1042.94,0 -1888.41,-805.65 -1888.41,-1799.54 0,-993.89 845.47,-1799.54 1888.41,-1799.54 557.23,0 1086.1,234.56 1444.85,640.9"/>
   <path class="fil0 str0" d="M6176.4 4813.45c-497.81,536.46 -1213.22,843.67 -1964.7,843.67 -1448.47,0 -2622.71,-1118.9 -2622.71,-2499.28 0,-1380.38 1174.24,-2499.3 2622.71,-2499.3 787.35,0 1533.08,337.1 2031.23,918.22"/>
  </g>
 </g>
</svg>
