<?xml version="1.0" standalone="no"?>
<!DOCTYPE svg PUBLIC "-//W3C//DTD SVG 20010904//EN"
 "http://www.w3.org/TR/2001/REC-SVG-20010904/DTD/svg10.dtd">
<svg version="1.0" xmlns="http://www.w3.org/2000/svg"
 width="192.000000pt" height="192.000000pt" viewBox="0 0 192.000000 192.000000"
 preserveAspectRatio="xMidYMid meet">
<metadata>
Created by potrace 1.16, written by Peter Selinger 2001-2019
</metadata>
<g transform="translate(0.000000,192.000000) scale(0.100000,-0.100000)"
fill="#000000" stroke="none">
<path d="M693 1750 c-233 -42 -420 -205 -499 -435 -49 -142 -36 -327 32 -470
58 -124 166 -234 290 -295 95 -47 175 -64 294 -63 121 0 222 28 323 90 l59 36
227 -227 226 -226 58 58 58 59 -225 220 c-124 121 -226 224 -226 228 0 4 15
33 34 64 19 31 47 92 62 136 23 69 27 96 27 195 0 99 -4 126 -27 195 -88 258
-305 424 -571 439 -50 3 -113 1 -142 -4z m232 -125 c98 -25 165 -64 240 -140
165 -164 201 -388 98 -603 -36 -75 -150 -189 -225 -225 -214 -103 -439 -66
-603 98 -208 208 -208 522 0 730 133 133 314 185 490 140z"/>
</g>
</svg>
